<svg xmlns="http://www.w3.org/2000/svg" viewBox="0 0 688.81 182.04"><defs><style>.cls-1{fill:#091a38;}</style></defs><g id="Layer_2" data-name="Layer 2"><g id="Layer_2-2" data-name="Layer 2"><path class="cls-1" d="M221.27,48.55a11.48,11.48,0,0,0-4.63-1.85,53.76,53.76,0,0,0-6.67-.63h-.05a32.27,32.27,0,0,0-14.22,3.1A33.33,33.33,0,0,0,186.35,56V49.19a1,1,0,0,0-1-1H156.72a1,1,0,0,0-1,1v93.49a1,1,0,0,0,1,1h28.63a1,1,0,0,0,1-1V83.6a24.74,24.74,0,0,1,8.77-8.08,24.39,24.39,0,0,1,12-3.06,32.15,32.15,0,0,1,7,.77,35,35,0,0,1,6.18,2,1,1,0,0,0,.4.09,1,1,0,0,0,.55-.17,1,1,0,0,0,.45-.83V49.37A1,1,0,0,0,221.27,48.55Z"/><path class="cls-1" d="M322,76.41a49.5,49.5,0,0,0-10.85-15.56,51.09,51.09,0,0,0-16.17-10.39,54.14,54.14,0,0,0-39.95,0,51.1,51.1,0,0,0-16.16,10.39A49.06,49.06,0,0,0,228,76.41a47.66,47.66,0,0,0,0,38.27,48.91,48.91,0,0,0,10.85,15.55A49.6,49.6,0,0,0,255,140.54a55.32,55.32,0,0,0,39.94,0,48.72,48.72,0,0,0,27-25.86,47.77,47.77,0,0,0,0-38.27Zm-31.77,35a21.09,21.09,0,0,1-30.44,0,22.12,22.12,0,0,1-6.25-15.86,22.34,22.34,0,0,1,6.25-16,21.11,21.11,0,0,1,30.44,0,23.46,23.46,0,0,1,0,31.89Z"/><path class="cls-1" d="M409,55.94c-7.34-6.31-17.73-9.52-30.87-9.52A94.84,94.84,0,0,0,356.46,49a123.72,123.72,0,0,0-22.36,7.75,1,1,0,0,0-.53.57,1,1,0,0,0,.05.78l10.25,21a1,1,0,0,0,.9.57.92.92,0,0,0,.39-.09A110,110,0,0,1,360.92,74,49.84,49.84,0,0,1,373,72.28c5.64,0,9.93,1.09,12.74,3.24s4.11,5.3,4.11,9.72v3.34c-3.05-.7-6.17-1.26-9.29-1.68a84.15,84.15,0,0,0-10.92-.71c-12.29,0-22,2.56-28.95,7.61s-10.57,12.36-10.57,21.49a27.26,27.26,0,0,0,9.89,21.62c6.52,5.55,14.94,8.36,25,8.36a54.72,54.72,0,0,0,14.13-1.71,39.24,39.24,0,0,0,10.67-4.68v3.8a1,1,0,0,0,1,1h28.28a1,1,0,0,0,1-1V82.77C420.17,71.33,416.43,62.3,409,55.94Zm-19.15,63.2a26.41,26.41,0,0,1-7.44,3,41,41,0,0,1-9.41,1c-4.38,0-7.83-.78-10.24-2.32a6.76,6.76,0,0,1-3.43-6,6.5,6.5,0,0,1,3.57-5.94c2.54-1.49,6.24-2.25,11-2.25a70.28,70.28,0,0,1,8.53.52,65.31,65.31,0,0,1,7.43,1.38Z"/><path class="cls-1" d="M530.43,10.93a.92.92,0,0,0-.07-.47c-.89-1.86-11.82-.4-20.06,3.57-7.65,3.67-10.78,7.33-10.48,9.33V52.77a48.86,48.86,0,0,0-10.05-3.88,51.45,51.45,0,0,0-32.19,2.17,48.37,48.37,0,0,0-26.34,25.88,48,48,0,0,0-3.88,19.22,48.86,48.86,0,0,0,3.79,19.22A49.94,49.94,0,0,0,441.52,131,48,48,0,0,0,457,141.45a48.58,48.58,0,0,0,19,3.79,42.57,42.57,0,0,0,13.57-2.18A45.62,45.62,0,0,0,500.18,138v5a1,1,0,0,0,1,1h28.27a1,1,0,0,0,1-1V11.1A1,1,0,0,0,530.43,10.93ZM499.82,112a24.91,24.91,0,0,1-8.19,5.07,30.34,30.34,0,0,1-10.6,1.79,23.47,23.47,0,0,1-16.72-6.53A22.58,22.58,0,0,1,464.22,80,23.41,23.41,0,0,1,481,73.48a29.74,29.74,0,0,1,10.6,1.88,26.89,26.89,0,0,1,8.19,4.82Z"/><path class="cls-1" d="M571,9.21a1,1,0,0,0-.54-.15,1.42,1.42,0,0,0-.2,0c-3.15-.7-12,.86-18.94,4.2-8,3.84-11,7.65-10.41,9.58a1,1,0,0,0-.08.37V143a1,1,0,0,0,1,1h28.63a1,1,0,0,0,1-1V10.07h0A1,1,0,0,0,571,9.21Z"/><path class="cls-1" d="M687.81,48.19H656.88a1,1,0,0,0-.93.62l-23,56.49-19.8-56.44a1,1,0,0,0-1-.67H580.53a1,1,0,0,0-.83.43,1,1,0,0,0-.11.92l35.78,94.59a16.71,16.71,0,0,1-6.57,8.27,20.15,20.15,0,0,1-10.95,2.86c-1.83,0-3.43-.06-4.78-.18a18.1,18.1,0,0,1-2.26-.34l-.93-.17-.18,0a.93.93,0,0,0-.44.12v0l-.1.08a.41.41,0,0,0-.11.07c-13.75,9.16-16.63,26.94-16.63,26.94l28.45.3c16.64,0,22.4-3.18,30.38-7.89C640,169,642.81,157.42,646.84,148L688.7,49.64a1,1,0,0,0-.89-1.45Z"/><path class="cls-1" d="M142.28,77.94a49.78,49.78,0,0,0-10.37-15.59A48.35,48.35,0,0,0,97.35,48.09a50.14,50.14,0,0,0-13.28,2C77.12,52,47.37,61.5,45.19,88.9c-.57,7.25-1-88.27-.59-84.25,2.36,25.16,25.63,37.66,29,39V0H44.09C42.81,43.43-.72,49.16,0,49.12,36.4,56,44.45,87.06,44.2,98.68c0,0-.22,24.94-.22,45.14a1,1,0,0,0,.29.7,1,1,0,0,0,.71.3H72.26a1,1,0,0,0,1-1v-3.58a46.37,46.37,0,0,0,10.22,4.1,49.48,49.48,0,0,0,13,1.71,50.22,50.22,0,0,0,19.38-3.78,48.35,48.35,0,0,0,26.34-25.89,47.87,47.87,0,0,0,3.88-19.22A48.86,48.86,0,0,0,142.28,77.94ZM112.72,115a23.39,23.39,0,0,1-16.81,6.52,29.88,29.88,0,0,1-10.6-1.87,26.89,26.89,0,0,1-8.19-4.82V83A25.05,25.05,0,0,1,85.31,78a30.07,30.07,0,0,1,10.6-1.79,23.48,23.48,0,0,1,16.72,6.53,22.58,22.58,0,0,1,.09,32.31Z"/></g></g></svg>